<svg version="1.2" xmlns="http://www.w3.org/2000/svg" viewBox="0 0 549 453" width="549" height="453"><style>.a{fill:#e22829}.b{fill:#1888c2}.c{fill:#212121}.d{fill:#696a6a}.e{opacity:1;fill:#a7a9ae}.f{fill:#fdfefd}</style><path class="a" d="m310.1 194c-0.5 0.3-1.1 1.6-1.4 3-0.3 1.4-2.8 11.1-5.6 21.5-2.7 10.4-5.7 21.3-6.5 24-0.9 2.8-1.6 6-1.6 7.3 0 1.2-0.4 3-0.9 4-0.6 0.9-1.7 4.4-2.5 7.7-0.8 3.3-2.5 9.4-3.7 13.5-1.1 4.1-2.5 9.1-2.9 11-0.4 1.9-1.7 6.4-2.9 10-1.2 3.6-2.1 7.2-2.1 8 0 1-0.3 1.1-0.9 0.5-0.5-0.6-2.1-5.1-3.6-10-1.4-4.9-3.5-11.9-4.6-15.5-1-3.6-2.8-9.9-3.9-14-1.1-4.1-2.5-9.1-3-11-0.5-1.9-1.9-6.9-3.1-11-1.2-4.1-3-10.4-4-14-1-3.6-2.8-9.9-3.9-14-1.2-4.1-3.1-10.5-4.3-14.3l-2.2-6.7-56 0.1c10.8 11.4 12.4 14 14.2 19.5 1.6 4.9 2.3 9.2 2.3 14.9-0.1 4.4-0.6 10.7-1.4 14-0.7 3.3-2.5 8.7-4 12-1.5 3.3-4.7 8.7-7.1 12-2.3 3.3-5.6 7.4-7.2 9-1.6 1.6-5 4.6-7.6 6.5l-4.6 3.5-0.1 83.5c39.1 0 41.1-0.2 41.6-1.7 0.3-1 0.2-29.9-0.2-64.3-0.5-38.9-0.4-62.3 0.2-61.9 0.5 0.4 1.5 2.8 2.2 5.5 0.7 2.7 2.4 8.7 3.8 13.4 1.4 4.7 3 10.1 3.4 12 0.5 1.9 2.3 8 3.9 13.5 1.7 5.5 4 13.6 5.1 18 1.2 4.4 2.9 10.5 3.9 13.5 1 3 2.9 9.3 4.1 14 1.2 4.7 2.7 10.1 3.2 12 0.6 1.9 1.4 4.3 1.9 5.2 0.5 1 0.9 2.7 0.9 3.8 0 1.1 0.4 2.2 1 2.5 0.5 0.3 1 1.2 1 2 0 0.8 0.7 4 1.5 7l1.5 5.5h46.5c3.6-14.3 5.5-21.2 6.6-24.5 1-3.3 2.8-9.4 3.9-13.5 1.2-4.1 2.6-9.3 3.2-11.5 0.6-2.2 1.4-5.1 1.8-6.5 0.4-1.4 1.7-5.9 2.9-10 1.2-4.1 2.6-8.9 3.1-10.5 0.5-1.6 1-4 1-5.3 0-1.2 0.3-2.4 0.7-2.6 0.5-0.2 1.1-1.7 1.5-3.2 0.3-1.6 1.6-6.3 2.8-10.4 1.1-4.1 3-10.6 4-14.5 1-3.9 2.5-9 3.3-11.5 1.4-4.2 1.5-2.8 1.6 22 0.1 14.6 0.4 43.5 0.8 64.3l0.8 37.7h44.5v-175c-26.7-0.8-43-0.9-53.3-0.7-10.4 0.1-19.2 0.4-19.6 0.7zm-239 0.2c-0.1 0.2-1.2 4.8-2.7 10.3-1.4 5.5-2.8 11.1-3.1 12.5-0.2 1.4-0.8 3.4-1.3 4.5-0.5 1.1-1.5 4.7-2.4 8-0.8 3.3-2.8 10.9-4.5 17-1.6 6.1-3.6 13.5-4.5 16.5-0.8 3-2.2 8.2-3.1 11.5-1 3.3-3 10.7-4.5 16.5-1.6 5.8-3.6 12.7-4.4 15.5-0.9 2.7-1.6 6.2-1.6 7.7 0 1.6-0.3 2.9-0.8 3-0.4 0.2-1.5 3.4-2.5 7.3-1 3.9-2.5 9.5-3.3 12.5-0.9 3-1.9 7.1-2.4 9-0.5 1.9-2 7.3-3.4 12-1.4 4.7-2.6 9.1-2.6 9.7 0 1 5.2 1.2 23.2 1l23.2-0.2c1.1-4.6 2.3-9.5 3.5-13.8 1.2-4.2 3-11.2 4.2-15.5 1.1-4.2 2.7-10.4 3.5-13.7 0.9-3.3 1.9-6.9 2.4-8 0.5-1.1 1.1-3.4 1.5-5 0.3-1.6 1-4.6 1.5-6.5 0.5-1.9 1.8-6.9 3-11 1.2-4.1 2.6-9 3.1-10.8 0.5-1.7 1.3-4.7 1.8-6.5 0.5-1.7 2.1-7 3.5-11.7 1.4-4.7 2.6-9.3 2.6-10.3 0-0.9 0.4-2.5 0.9-3.5 0.5-0.9 1.4-3.7 2.1-6.2 0.6-2.5 1.9-7 2.9-10 1.4-4.2 2.4-5.7 4.2-6.2 1.3-0.3 7.5-0.6 13.6-0.7 6.2-0.1 13.4 0.4 16 0.9 2.7 0.6 6.1 2.1 7.8 3.4 2.9 2.3 3 2.7 3 10.3-0.1 4.6-0.6 8.4-1.3 9.3-0.7 0.8-2.3 3.1-3.5 5-1.3 1.9-4.5 5.2-7.2 7.2-2.8 2.1-8.2 4.7-12 5.9-5.8 1.9-8.3 2.1-14.8 1.6l-7.7-0.7c0.8 8.9 1.5 18.7 2.1 27.5 0.6 8.8 1.5 22.3 1.9 30 0.5 7.7 1.3 19.7 1.7 26.8l0.8 12.7h52.5c-0.6-3.5-1.3-7-1.9-10-0.6-3-1.8-10.2-2.7-16-0.9-5.8-2.1-13.1-2.5-16.3-0.5-3.1-1.4-8.5-1.9-12-0.6-3.4-1.3-10.3-1.6-15.2l-0.7-9c9.9-3.8 15.7-6.9 19.3-9.3 3.6-2.5 9.3-7.4 12.8-11.1 3.4-3.6 7.3-8.6 8.7-11.1 1.3-2.5 3.4-7.4 4.6-11 1.2-3.6 2.4-10.3 2.6-15 0.3-5 0-10.8-0.7-14-0.6-3-2.2-7.3-3.5-9.5-1.2-2.2-4.1-5.5-6.4-7.3-2.2-1.7-4.8-3.2-5.6-3.2-0.8 0-1.5-0.3-1.5-0.8 0-0.4-1.9-1.3-4.2-2.1-3.4-1.1-15-1.5-56-1.8-28.4-0.2-51.7-0.3-51.7-0.1z"/><path class="b" d="m449.3 1.8c-1.1 0.9-4 4.2-6.4 7.2-2.4 3-5.1 6.2-5.9 7-0.8 0.8-3.6 4-6 7-2.5 3-4.9 6-5.5 6.6-0.5 0.5-2.7 3-4.7 5.5l-3.7 4.4-0.1 46.5c-9.7 11.2-13.7 15.8-15.2 17.5l-2.8 3v263.5c-3.3 6.6-5.1 9.6-6 11-1 1.4-4.4 6.8-7.6 12-3.3 5.2-6.4 10.4-7.1 11.5-0.7 1.1-1.8 3.1-2.5 4.5-0.7 1.4-3 4.8-5 7.5-2.1 2.8-3.8 5.3-3.8 5.8 0 0.4 6.8 0.6 15.1 0.4l15.2-0.2c6.7-9.3 9-12.7 9.4-13.5 0.4-0.8 1.5-2.4 2.5-3.5 1-1.1 1.8-2.6 1.8-3.3 0-0.6 0.3-1.2 0.7-1.2 0.5 0 1.5-1.2 2.3-2.7 0.8-1.6 1.8-3 2.1-3.3 0.3-0.3 2-2.6 3.7-5.3 1.8-2.6 3.2-5.1 3.2-5.7 0-0.6 0.3-1 0.7-1 0.5 0 1.5-1.2 2.3-2.7 0.8-1.6 1.8-3 2.1-3.3 0.3-0.3 2.9-4 5.7-8.3 2.9-4.2 5.2-8.1 5.2-8.7 0-0.6 0.4-1.1 0.9-1.3 0.4-0.1 4.9-6.5 10-14.2 5-7.7 9.5-14.4 9.9-15 0.4-0.6 1.6-2.2 2.7-3.6 1.1-1.5 2.7-3.7 3.5-4.9 0.8-1.3 2.3-3 3.3-3.9 0.9-0.9 1.7-2.2 1.7-2.9 0-0.6 0.5-1.2 1-1.2 0.5 0 1.2-0.9 1.5-2 0.3-1.1 1.1-2.6 1.8-3.3 0.7-0.6 4.6-6 8.5-12 4-5.9 7.2-10.9 7.2-11.2 0-0.3 0.7-1.2 1.5-2 0.8-0.8 1.8-2.7 2.2-4.3 0.3-1.5 1-2.9 1.4-3.2 0.5-0.3 2.1-3.6 3.6-7.5 2.5-6.3 2.8-8.4 3.1-22 0.2-13.1 0-15.8-1.9-21.5-1.1-3.6-3.4-9.2-5-12.5l-2.8-6v-68c-6.1-10.3-7.8-12-9.4-12.1-1.6-0.1-4.6 2.3-10.4 8.5l-8.3 8.6v-124.5c-9.3-14-12.4-18-12.9-18-0.5 0-1.7 0.8-2.8 1.7z"/><path class="c" d="m65.4 382.4c-1.8 0.8-3.9 2.5-4.8 3.7-0.9 1.3-1.6 4.1-1.6 6.2 0 2 0.6 4.9 1.4 6.5 0.8 1.5 3.1 4.3 5.1 6.2 2 1.9 4.3 4.7 5.1 6.3 0.8 1.5 1.2 3.4 0.9 4.2-0.3 0.8-2.2 1.8-4.3 2.1-2 0.3-4.7 0.1-6-0.5-1.2-0.6-2.6-1.1-3.2-1.1-0.6 0-1 2-1 4.5 0 4.1 0.2 4.5 2.7 5.1 1.6 0.3 3.8 0.7 5 1 1.3 0.2 4.4-0.1 7-0.7 2.7-0.5 5.8-2 7.1-3.2 1.2-1.2 2.7-3.5 3.2-5.2 0.7-2 0.6-4.2 0-6.5-0.6-1.9-3.5-6.1-6.5-9.2-3.7-3.9-5.5-6.6-5.5-8.3 0-1.4 0.6-2.8 1.2-3.2 0.7-0.4 2.9-0.6 4.8-0.5 1.9 0.1 4.3 0.4 5.2 0.7 1.5 0.4 1.8-0.2 1.8-4 0-3.9-0.3-4.6-2.3-5-1.2-0.3-4.5-0.5-7.2-0.4-2.8 0-6.4 0.6-8.1 1.3zm30.8 0.4c-1.8 1-3.7 2.5-4.1 3.3-0.5 0.8-1.2 2.8-1.6 4.4-0.4 1.9-0.1 4.4 0.9 6.8 0.9 2 3.8 6.1 6.6 9 2.8 3 5 6.2 5 7.5 0 1.3-0.9 2.6-2.3 3.3-1.2 0.6-3.6 0.9-5.2 0.6-1.7-0.4-4-1-5.3-1.4-2.3-0.8-2.3-0.7-1.6 3.7 0.4 2.5 1.2 4.8 1.8 5.2 0.6 0.4 4.3 0.8 8.1 0.8 5.3 0 7.8-0.5 10.2-2 1.8-1.1 3.8-3 4.4-4.2 0.7-1.3 1.2-3.6 1.2-5.3 0-1.6-0.6-4.1-1.3-5.5-0.7-1.4-3.7-5.1-6.6-8.2-3-3.2-5.4-6.5-5.4-7.3 0-0.8 1-2.2 2.2-3 1.3-0.8 3.3-1.2 4.5-1 1.3 0.3 3.3 0.7 4.5 0.9 2.1 0.5 2.3 0.2 1.9-3.7-0.2-2.3-0.8-4.5-1.5-4.9-0.6-0.4-3.8-0.8-7.1-0.8-3.9 0-7.1 0.6-9.3 1.8zm36.3 0.7c-3.4 1.6-5.9 3.8-7.8 6.7-1.5 2.4-3.2 6.8-3.9 9.8-0.9 4.3-0.9 6.7 0.1 11 0.6 3 2.2 6.8 3.4 8.4 1.2 1.7 4 3.8 6.2 4.8 2.4 1.1 6.4 1.8 10.2 1.8 3.5 0 8-0.7 10-1.6 2.1-0.8 5.1-2.7 6.7-4.2 1.6-1.5 3.7-4.5 4.7-6.7 1.2-2.7 1.9-6.3 1.9-11q0-7-1.9-11c-1-2.2-2.7-4.8-3.7-5.7-1-0.9-3.6-2.4-5.7-3.2-2-0.9-6.3-1.6-9.5-1.6-4.1 0-7.1 0.7-10.7 2.5zm50-1.1c-1.6 0.7-4.5 2.6-6.3 4.2-2 1.7-4.2 5.1-5.4 8.4-1.5 4.1-1.9 7.2-1.6 12 0.3 4.8 1.1 7.6 2.9 10.5 1.5 2.4 4.3 4.9 7 6.2 3.3 1.7 6.2 2.3 11.6 2.3 6.9 0 7.4-0.2 8.3-2.5 0.6-1.4 1-3.6 1-5 0-2.5 0-2.5-6.4-1.7l-6.3 0.7c-6.9-7.1-7.3-8.1-7.3-12.7q0-5.3 2-8.5c1.1-1.8 3.5-4 5.2-4.9 2.5-1.3 4.7-1.5 9-1l5.8 0.6-0.5-9.5c-13-0.4-17.1 0-19 0.9zm165.3 0.1c-1.6 0.8-3.5 2.9-4.3 4.5-0.8 1.6-1.5 4.4-1.5 6 0 1.6 0.5 4 1.1 5.3 0.7 1.2 3.6 4.8 6.5 8 3 3.1 5.4 6.6 5.4 7.7 0 1.2-1 2.4-2.8 3.1-2 0.8-3.8 0.8-7 0-2.3-0.6-4.5-1.1-5-1.1-0.4 0-0.6 2-0.5 4.5 0.2 3.3 0.8 4.6 2 5 1 0.3 4.5 0.6 7.8 0.7 4.1 0.1 7.2-0.5 9.9-1.8 2.1-1 4.5-3.1 5.2-4.6 0.8-1.6 1.4-4.3 1.4-6 0-1.8-0.8-4.4-1.7-5.8-1-1.4-3.9-4.7-6.5-7.5-2.7-2.9-4.8-6-4.8-7.2 0-1.4 0.9-2.7 2.2-3.4 1.3-0.6 3.4-0.9 4.8-0.6 1.4 0.3 3.3 0.8 4.2 1.1 1.5 0.5 1.8-0.1 1.8-3.9 0-3.1-0.5-4.7-1.5-5-0.8-0.3-4.3-0.5-7.8-0.5-3.4 0.1-7.4 0.7-9 1.5zm-323.7 9.2c-2.4 5.4-6.8 14.9-9.7 21.1-2.9 6.1-5.3 11.4-5.3 11.7 0 0.3 2.5 0.5 5.5 0.5h5.5l4.5-12h15l2.5 12c7.9 0.4 10.4 0.2 10.6-0.2 0.2-0.5-2-10.1-4.9-21.5l-5.2-20.8-14.1-0.6zm185.1 8.1c-0.6 9.7-1.4 19.5-1.7 21.7l-0.5 4c8.2-0.6 10.7-0.8 10.8-0.9 0.1 0 0.6-7.5 1.3-16.6 0.6-9.1 1.3-18.6 1.6-21.2l0.4-4.8h-10.7zm30-11.5c-1.6 3.4-5.7 12.1-9.1 19.3-3.4 7.1-6.6 14-7.1 15.2-0.9 2.2-0.7 2.3 4.6 2.3h5.5l5.5-12.2 14.9 0.7c1.9 8.5 3.1 11.3 3.8 11.6 0.7 0.4 3.2 0.7 5.6 0.8 2.3 0 4.2-0.3 4.2-0.7 0-0.4-2-7.9-4.4-16.7-2.3-8.8-4.9-18.4-5.7-21.3l-1.4-5.3-13.4 0.1zm27.9-2.3v4h11.5c-1.2 15.1-1.9 23.2-2.3 27.6l-0.7 8.2c9.7-0.3 10.5-0.6 10.6-2.3 0-1.1 0.6-9 1.2-17.5l1.2-15.5c10.8-0.5 11-0.6 11.7-3.8 0.5-1.7 0.8-3.5 0.8-3.9 0-0.5-7.7-0.8-17-0.8h-17zm38.6-0.2c-0.3 2-1.1 10.2-1.7 18.2-0.5 8-1.1 16-1.2 17.8l-0.2 3.3 29.5 0.9c0-4.6 0.2-6.7 0.5-7.5 0.4-1.3-1-1.5-9-1.5h-9.5l0.5-9.5 16.5-0.5v-8h-16l0.5-8.5c17.3-0.5 18.5-0.7 18.5-2.2 0-1 0.2-2.8 0.5-4l0.5-2.3h-28.9zm-301.4 50.5c0.4 1 49.4 1.3 239.7 1.5 212.2 0.2 239.1 0.1 238.6-1.2-0.4-1.4-27.9-1.5-239.6-1.5-190.9 0-239 0.2-238.7 1.2zm-3.2 13.3v2.5h481v-5h-481z"/><path class="d" d="m119.5 229.7c3.8 0.2 9.7 0.2 13 0 3.3-0.2 0.2-0.3-7-0.3-7.2 0-9.8 0.1-6 0.3zm383.8 15.3c0 4.7 0.2 6.5 0.4 4 0.2-2.5 0.2-6.3 0-8.5-0.2-2.2-0.4-0.2-0.4 4.5zm11.3-3.5c-0.3 0.8-1.4 1.4-2.4 1.3-1.5-0.3-1.8 1-2.3 11.7-0.3 7-1.5 15.5-2.7 20.5-1.2 4.7-3.4 11.4-4.8 15-1.4 3.6-3.8 8.8-5.1 11.5-1.4 2.8-4.6 8.4-7.1 12.5-2.5 4.1-13.8 20.9-25.1 37.2-11.3 16.4-24.7 35.7-29.8 43-5.1 7.3-11.5 16.7-14.4 20.8l-5.1 7.5c5.2 0.5 6.8 0.3 6.9-0.2 0.2-0.4 3.5-5.6 7.5-11.6 7-10.3 7.4-10.6 9.1-9 1 1 1.8 2.1 1.7 2.6 0 0.4-1.3 2.6-2.9 5-1.6 2.3-4.3 6.3-6 9l-3.1 4.7h14c10.6-15.9 21.3-32.4 30.7-47 9.4-14.6 21.4-33.2 26.8-41.5 5.3-8.2 11.7-18.9 14.1-23.7 2.4-4.9 5.4-12.3 6.6-16.5 1.8-6.4 2.2-10.4 2.3-22.3 0-12.5-0.3-15.5-2.3-22-1.3-4.1-2.9-8.1-3.5-8.8-0.7-0.7-1.5-1.3-1.9-1.2-0.3 0-0.9 0.7-1.2 1.5zm21.6 27.8c-0.7 4.5-2 12.7-2.8 18.2-0.9 5.5-3.1 14.7-5 20.5-1.8 5.8-5.7 15-8.5 20.5-2.7 5.5-8.9 15.4-13.5 22-4.7 6.6-9.4 13.1-10.4 14.5-1 1.4-10.8 14.6-21.9 29.5-11 14.9-20 27.3-20.1 27.8 0 0.4 6.4 0.7 14.2 0.7l14.3-0.1c16.3-24.3 28.3-41.9 37.3-54.9 9-12.9 18.1-27.1 20.2-31.5 2.1-4.4 4.9-11.8 6-16.5 1.2-4.7 2.5-13.2 2.7-19 0.3-6 0.1-13.5-0.6-17.5-0.6-3.9-2.4-9.7-4-13-1.5-3.3-3.7-6.8-4.7-7.7-1.8-1.7-1.9-1.5-3.2 6.5zm-505.7 112.3c1.1 0.2 4.3 0.5 7.2 0.6 2.8 0.2 4.9 0 4.7-0.4-0.2-0.5-3.4-0.7-7.2-0.7-3.7 0.1-5.8 0.3-4.7 0.5zm214.5 0.1c1.9 0.2 5.3 0.2 7.5 0 2.2-0.2 0.6-0.4-3.5-0.4-4.1 0-5.9 0.2-4 0.4zm30 0c4.7 0.2 12.5 0.2 17.5 0 4.9-0.1 1.1-0.3-8.5-0.3-9.6 0-13.7 0.2-9 0.3zm30.4 0.6c-0.3 0.6-0.4 1.9-0.1 2.7 0.4 0.9 0.6 0.7 0.6-0.7 0.1-2.3 0.3-2.3 14.8-2.6l14.8-0.3c-25.8-0.3-29.7-0.1-30.1 0.9zm-39.1 5.7c0.2 2.3 0.6 2.5 5.7 2.6h5.5c-9.8-0.6-10.6-0.9-10.9-2.8-0.4-1.9-0.4-1.9-0.3 0.2zm52.7 19.7c2.5 0.2 6.1 0.2 8 0 1.9-0.2-0.1-0.4-4.5-0.4-4.4 0-6 0.2-3.5 0.4zm-311 17.6c0 0.4 2.8 0.6 6.2 0.6 3.5-0.1 5.6-0.3 4.8-0.5-0.8-0.2-3.6-0.4-6.2-0.6-2.7-0.2-4.8 0-4.8 0.5zm300.5 0.4c1.6 0.2 4.8 0.2 7 0 2.2-0.2 0.9-0.4-3-0.4-3.9 0-5.6 0.2-4 0.4zm-65.5 9.1c187.2 0.2 238.7 0.5 239.2 1.5q0.8 1.2 0.8-0.5c0-1.7-12-1.8-239.3-1.6l-239.2 0.3zm98 4c3.6 0.2 9 0.2 12 0 3-0.2 0.1-0.4-6.5-0.4-6.6 0-9.1 0.2-5.5 0.4zm-340.6 8.5c-0.3 0.7-0.3 2.1-0.1 3.2 0.3 1.5 0.5 1.3 0.6-0.7l0.1-2.8h481c0.5 4.6 0.5 4.6 0.5 2.3v-2.8c-432.8-0.4-481.7-0.2-482.1 0.8zm210.1 5.5c2.2 0.2 6 0.2 8.5 0 2.5-0.3 0.7-0.4-4-0.4-4.7 0-6.7 0.1-4.5 0.4zm128.5 0c10.7 0.1 28.7 0.1 40 0 11.3-0.2 2.5-0.3-19.5-0.3-22 0-31.2 0.1-20.5 0.3z"/><path class="e" d="m416.2 63c-0.1 14.1-0.6 24-1.2 24.8-0.8 0.9-0.7 0.9 0.5-0.1 1.3-1 1.5-4.8 1.2-24.7l-0.2-23.5zm-17.8 176c0 72.9 0.1 102.6 0.3 66 0.1-36.6 0.1-96.2 0-132.5-0.2-36.3-0.3-6.4-0.3 66.5zm-304-45.3c13.2 0.2 35.3 0.2 49 0 13.8-0.1 3-0.2-24-0.2-26.9 0-38.2 0.1-25 0.2zm93.5 0.3c0 0.5 0.4 1 0.8 1 0.4-0.1 3 1.8 5.7 4.1l5 4.1-9.5-9.2c44.2 0 57.2 0.3 57.3 0.7 0.2 0.5 0.3 0.4 0.2-0.2-0.1-0.6-11-1.1-29.8-1.3-19.6-0.1-29.7 0.1-29.7 0.8zm136.5-0.3c1.7 0.2 4.8 0.2 7 0 2.2-0.2 0.9-0.4-3-0.4-3.8 0-5.6 0.2-4 0.4zm46 0c2.8 0.2 6.8 0.2 9 0 2.2-0.2 0-0.3-5-0.3-4.9 0-6.7 0.1-4 0.3zm12.5 98.8v76.5h-45l-0.5-50v50.5l46.5 0.5c0-119.4-0.2-154-0.5-154-0.3 0-0.5 34.4-0.5 76.5zm-166.8-15.5l0.3 36.5c0.8-53.5 1.3-68.3 1.6-67.5 0.4 0.8 0.4 0.4 0.2-1-0.2-1.4-0.9-2.9-1.4-3.5-0.6-0.6-0.8 12.5-0.7 35.5zm-30.3-1.6c-2.9 3.2-4.5 5.3-3.4 4.6 1.1-0.7 3.8-3.3 6-5.7 2.2-2.4 3.8-4.5 3.4-4.6-0.3-0.2-3 2.4-6 5.7zm-69.9-3.4l-7.5 0.6c10.9 0.2 15.1-0.2 16.5-0.6 1.9-0.6 2-0.8 0.5-0.7-1.1 0-5.4 0.3-9.5 0.7zm-10.7 11.5c0 3.9 0.2 5.2 0.4 3 0.3-2.2 0.3-5.4 0-7-0.2-1.6-0.4 0.1-0.4 4zm69.2 43.7v42.3c41 0.5 42.5 0.4 42.4-1.3 0-0.9-0.2-1.1-0.5-0.5-0.3 1-5.4 1.3-20.9 1.3h-20.5l-0.5-84zm-151.5 41c0 1.6 1.8 1.7 23.5 1.7 12.9 0 23.7-0.3 23.9-0.7 0.2-0.4-10-0.6-22.7-0.5-17.8 0.2-23.4 0-23.9-1-0.6-0.9-0.8-0.7-0.8 0.5zm230.3-0.3c0.3 1.3 3.9 1.6 24.3 1.6h23.9c-40.5-0.5-47.2-1-47.8-1.8q-0.9-1.3-0.4 0.2zm-132.8 1.8c5.5 0.2 14 0.2 19 0 4.9-0.2 0.4-0.3-10-0.3-10.5 0-14.5 0.1-9 0.3zm200.5 21c3 0.2 7.5 0.2 10 0 2.5-0.2 0-0.4-5.5-0.4-5.5 0-7.5 0.2-4.5 0.4zm-5.7 5.7c0.2 1.9 1 2 8.5 2h8.2c-14.7-0.4-16.1-0.7-16.4-2.2q-0.5-1.9-0.3 0.2zm-290.6 17.3c-0.3 0.4 2.7 0.6 6.6 0.4 5.1-0.2 7.4 0.1 8 1 0.6 1 0.7 1 0.4-0.2-0.3-1.1-2.2-1.5-7.4-1.7-3.9-0.2-7.3 0-7.6 0.5zm217.3 0c1.9 0.2 5.3 0.2 7.5 0 2.2-0.2 0.6-0.4-3.5-0.4-4.1 0-5.9 0.2-4 0.4zm74.5 2.9c1.6 0.2 6.2 0.4 10.2 0.6 3.9 0.1 6.9-0.1 6.7-0.5-0.2-0.4-4.8-0.7-10.2-0.6-5.3 0.1-8.4 0.3-6.7 0.5zm80.8 5.4c-0.7 0.7-6.5 0.9-16.2 0.8-8.3-0.2-15.1 0-15.1 0.4 0 0.4 6.9 0.8 15.2 0.8 12.6 0 15.5-0.2 16.6-1.5 0.7-0.9 1.2-1.6 1-1.6-0.2 0-0.9 0.5-1.5 1.1zm18.2-0.4c-0.5 0.4-0.8 1.1-0.7 1.5 0.1 0.5 2.2 0.8 4.7 0.8 3.6 0 4.5-0.3 4.4-1.7 0-1-0.2-1.2-0.5-0.5-0.2 0.7-2 1.2-3.9 1.2-2 0-3.3-0.4-3-1 0.2-0.5 0.3-1 0.1-1-0.1 0-0.6 0.3-1.1 0.7zm27.9 0.3c-0.5 0.5-4.1 1.1-7.9 1.3l-7 0.4c12.3 0.4 14.3 0.1 15.3-1.1 0.7-0.9 1.2-1.6 1-1.6-0.2 0-0.8 0.5-1.4 1zm9.6 1.3c0 0.4 6.6 0.7 14.7 0.6 8.2-0.1 12.5-0.4 9.8-0.5-2.8-0.2-9.4-0.4-14.8-0.6-5.3-0.1-9.7 0.1-9.7 0.5zm-366 15.5c45.9 0.1 120.6 0.1 166 0 45.4-0.1 7.8-0.3-83.5-0.3-91.3 0-128.4 0.2-82.5 0.3zm302.5 0c17.6 0.2 45.9 0.2 63 0 17-0.2 2.6-0.3-32-0.3-34.7 0-48.6 0.1-31 0.3zm-371 14c10.4 0.2 27.1 0.2 37 0 9.9-0.2 1.3-0.3-19-0.3-20.4 0-28.5 0.1-18 0.3zm93.5 0c17.9 0.2 46.7 0.2 64 0 17.3-0.2 2.7-0.3-32.5-0.3-35.2 0-49.4 0.1-31.5 0.3zm132.5 0c12.1 0.2 31.4 0.2 43 0 11.5-0.2 1.6-0.3-22-0.3-23.7 0-33.1 0.1-21 0.3zm175 0c11.5 0.2 30.7 0.2 42.5 0 11.8-0.2 2.4-0.3-21-0.3-23.4 0-33.1 0.1-21.5 0.3z"/><path class="f" d="m510.2 275.3q-0.8 4.2 0.2 4.5c0.6 0.2 1.2 0.2 1.4 0 0.1-0.2 0.4-2.2 0.7-4.6 0.3-2.3 0.1-4.2-0.4-4.2-0.6 0-1.4 1.9-1.9 4.2zm-2.6 10.5c-0.2 1-0.7 2.8-1 4-0.4 1.5-0.1 2.3 0.7 2.3 0.6 0 1.5-1.4 2-3.2 0.4-1.8 0.7-3.6 0.7-4.1 0-0.4-0.4-0.7-0.9-0.7-0.6 0-1.2 0.8-1.5 1.7zm-9.1 21.7c-4.6 10.5-4.9 11.4-3.2 12.5 1.4 0.9 2 0.6 3.6-2.7 1-2 3.3-7.2 5-11.5 1.7-4.2 3.1-8.1 3.1-8.7 0-0.6-0.8-1-1.7-1-1.3 0.1-3.2 3.3-6.8 11.4zm-8.8 18.4c-0.9 1.5-1.3 3.1-0.9 3.5 0.4 0.4 1 0.7 1.5 0.7 0.4 0 1.4-1.1 2.2-2.5 1.2-2.1 1.3-2.7 0.2-3.5-1-0.7-1.8-0.2-3 1.8zm-11.4 17.7c-3.5 5.2-6.3 9.9-6.3 10.5 0 0.6 0.8 1.2 1.8 1.5 0.9 0.3 1.7 0.4 1.8 0.3 0-0.2 1.6-2.6 3.5-5.3 2-2.8 4.7-7.1 6.2-9.8 1.5-2.6 2.5-5.1 2.2-5.7-0.3-0.6-1.1-1-1.7-1-0.7 0-4.1 4.3-7.5 9.5zm-11.9 18c-1 1.3-1.7 2.7-1.6 3 0.1 0.3 0.8 0.5 1.5 0.5 0.6 0.1 2-0.8 3-2 0.9-1.1 1.5-2.4 1.2-3-0.3-0.6-0.9-1-1.4-1-0.5 0-1.7 1.1-2.7 2.5zm-11.8 16.2c-4.9 7.2-6.3 10-5.4 10.5 0.7 0.4 1.5 0.8 1.8 0.8 0.3 0 3.3-3.8 6.8-8.5 3.4-4.7 6.3-8.9 6.4-9.4 0.2-0.5-0.5-1.4-1.3-2-1.4-1-2.6 0.3-8.3 8.6zm-317.3 14.8c-1.3 0.8-3 2.9-3.8 4.5-0.8 1.6-1.5 5.5-1.5 8.5 0 4.5 0.4 5.9 2.5 8 1.4 1.4 3.5 2.8 4.8 3.1 1.2 0.3 3.9-0.2 6-1 2.3-1 4.3-2.8 5.4-4.9 0.9-1.7 1.7-5.5 1.7-8.4 0.1-3.7-0.5-5.9-2-8-1.7-2.2-3-2.9-6.5-3.1-2.7-0.2-5.3 0.3-6.6 1.3zm-105.4 5l-2.6 6c5.6 0.4 7.3 0.4 7.5 0.3 0.1-0.2-0.4-3-1.1-6.3l-1.2-6zm411-3q-1.4 2.5-0.4 3.6c0.7 0.7 1.7 0.2 3.2-1.8 1.2-1.5 1.9-3.2 1.5-3.6-0.4-0.4-1.2-0.7-1.8-0.7-0.6 0-1.8 1.1-2.5 2.5zm-197.4 2.7c-1 2.4-1.9 4.9-2.1 5.5-0.3 0.9 0.8 1.3 3.3 1.3h3.8c-1.2-8.5-1.9-11-2.4-11-0.5 0-1.7 1.9-2.6 4.2z"/></svg>